<?xml version="1.0" encoding="UTF-8" standalone="no"?>
<svg width="16px" height="16px" viewBox="0 0 16 16" version="1.1" xmlns="http://www.w3.org/2000/svg" xmlns:xlink="http://www.w3.org/1999/xlink" xmlns:sketch="http://www.bohemiancoding.com/sketch/ns">
    <!-- Generator: Sketch 3.2.2 (9983) - http://www.bohemiancoding.com/sketch -->
    <title>Fill 91</title>
    <desc>Created with Sketch.</desc>
    <defs></defs>
    <g id="Page-1" stroke="none" stroke-width="1" fill="none" fill-rule="evenodd" sketch:type="MSPage">
        <path d="M15,14 C15,14.552 14.552,15 14,15 L2,15 C1.448,15 1,14.552 1,14 L1,2 C1,1.448 1.448,1 2,1 L14,1 C14.552,1 15,1.448 15,2 L15,14 L15,14 Z M14,0 L2,0 C0.8955,0 0,0.8955 0,2 L0,14 C0,15.1045 0.8955,16 2,16 L14,16 C15.1045,16 16,15.1045 16,14 L16,2 C16,0.8955 15.1045,0 14,0 L14,0 Z M12.5,13 L3.5,13 C3.224,13 3,13.224 3,13.5 C3,13.7765 3.224,14 3.5,14 L12.5,14 C12.776,14 13,13.7765 13,13.5 C13,13.224 12.776,13 12.5,13 L12.5,13 Z M7.612,11.843 C7.7165,11.948 7.855,11.9925 7.992,11.9855 C8.129,11.9925 8.268,11.948 8.3725,11.843 L10.8435,8.8525 C11.0395,8.656 11.0395,8.3375 10.8435,8.1405 C10.6475,7.944 10.3295,7.944 10.1335,8.1405 L8.5,10.1175 L8.5,2.5 C8.5,2.224 8.276,2 8,2 C7.724,2 7.5,2.224 7.5,2.5 L7.5,10.136 L5.851,8.1405 C5.655,7.944 5.337,7.944 5.141,8.1405 C4.945,8.3375 4.945,8.656 5.141,8.8525 L7.612,11.843 L7.612,11.843 Z" id="Fill-91" fill="#5298FC" sketch:type="MSShapeGroup"></path>
    </g>
</svg>