<?xml version="1.0" encoding="UTF-8" standalone="no"?>
<svg width="22px" height="16px" viewBox="0 0 22 16" version="1.1" xmlns="http://www.w3.org/2000/svg" xmlns:xlink="http://www.w3.org/1999/xlink" xmlns:sketch="http://www.bohemiancoding.com/sketch/ns">
    <!-- Generator: Sketch 3.2.2 (9983) - http://www.bohemiancoding.com/sketch -->
    <title>Slice 1</title>
    <desc>Created with Sketch.</desc>
    <defs></defs>
    <g id="Page-1" stroke="none" stroke-width="1" fill="none" fill-rule="evenodd" sketch:type="MSPage">
        <path d="M17.1875,14.6666667 L5.5,14.6666667 C5.5,14.6666667 1.348875,14.2533333 1.375,10.6666667 C1.3894375,8.64 3.223,6.78666667 5.5,6.66666667 C5.5,3.90666667 7.321875,1.33333333 10.3125,1.33333333 C12.6726875,1.33333333 14.2470625,2.73333333 14.807375,4.67333333 C18.2139375,4.53333333 20.51775,7.14666667 20.625,9.33333333 C20.7178125,11.22 19.03,13.6533333 17.1875,14.6666667 L17.1875,14.6666667 Z M15.8585625,3.35333333 C14.8493125,1.36666667 12.7483125,0 10.3125,0 C7.0475625,0 4.379375,2.45333333 4.1476875,5.56 C1.747625,6.22666667 0,8.26 0,10.6666667 C0,13.5066667 2.43375,15.82 5.5,15.9866667 L17.1875,16 C19.5504375,15.0066667 22,12.2333333 22,9.66666667 C22,6.29333333 19.2836875,3.54666667 15.8585625,3.35333333 L15.8585625,3.35333333 Z M14.6403125,8.26 L11.6875,11.1066667 L11.6875,4.67333333 C11.6875,4.30666667 11.3801875,4.00666667 11,4.00666667 C10.6205,4.00666667 10.3125,4.30666667 10.3125,4.67333333 L10.3125,11.0866667 L7.381,8.26 C7.1115,8 6.6735625,8 6.4026875,8.26 C6.1331875,8.52 6.1331875,8.94 6.4026875,9.20666667 L10.487125,13.1466667 C10.6315,13.2866667 10.8219375,13.3466667 11.011,13.3333333 C11.199375,13.3466667 11.3905,13.2866667 11.5341875,13.1466667 L15.618625,9.20666667 C15.888125,8.94 15.888125,8.52 15.618625,8.26 C15.3484375,8 14.9105,8 14.6403125,8.26 L14.6403125,8.26 Z" id="Fill-16" fill="#5298FC" sketch:type="MSShapeGroup"></path>
    </g>
</svg>