<?xml version="1.0" encoding="UTF-8" standalone="no"?>
<svg width="18px" height="16px" viewBox="0 0 18 16" version="1.1" xmlns="http://www.w3.org/2000/svg" xmlns:xlink="http://www.w3.org/1999/xlink" xmlns:sketch="http://www.bohemiancoding.com/sketch/ns">
    <!-- Generator: Sketch 3.2.2 (9983) - http://www.bohemiancoding.com/sketch -->
    <title>Fill 127</title>
    <desc>Created with Sketch.</desc>
    <defs></defs>
    <g id="Page-1" stroke="none" stroke-width="1" fill="none" fill-rule="evenodd" sketch:type="MSPage">
        <path d="M3,11.4285714 C2.0058,11.4285714 1.2,10.6611429 1.2,9.71428571 C1.2,8.768 2.0058,8 3,8 C3.9942,8 4.8,8.768 4.8,9.71428571 C4.8,10.6611429 3.9942,11.4285714 3,11.4285714 L3,11.4285714 Z M3.6,6.91485714 L3.6,0.571428571 C3.6,0.256 3.3318,0 3,0 C2.6682,0 2.4,0.256 2.4,0.571428571 L2.4,6.91485714 C1.0308,7.17942857 0,8.332 0,9.71428571 C0,11.0965714 1.0308,12.2491429 2.4,12.5137143 L2.4,15.4285714 C2.4,15.7445714 2.6682,16 3,16 C3.3318,16 3.6,15.7445714 3.6,15.4285714 L3.6,12.5137143 C4.9692,12.2491429 6,11.0965714 6,9.71428571 C6,8.332 4.9692,7.17942857 3.6,6.91485714 L3.6,6.91485714 Z M9,5.71428571 C8.0058,5.71428571 7.2,4.94685714 7.2,4 C7.2,3.05371429 8.0058,2.28571429 9,2.28571429 C9.9942,2.28571429 10.8,3.05371429 10.8,4 C10.8,4.94685714 9.9942,5.71428571 9,5.71428571 L9,5.71428571 Z M9.6,1.20057143 L9.6,0.571428571 C9.6,0.256 9.3318,0 9,0 C8.6682,0 8.4,0.256 8.4,0.571428571 L8.4,1.20057143 C7.0308,1.46514286 6,2.61771429 6,4 C6,5.38228571 7.0308,6.53485714 8.4,6.79942857 L8.4,15.4285714 C8.4,15.7445714 8.6682,16 9,16 C9.3318,16 9.6,15.7445714 9.6,15.4285714 L9.6,6.79942857 C10.9692,6.53485714 12,5.38228571 12,4 C12,2.61771429 10.9692,1.46514286 9.6,1.20057143 L9.6,1.20057143 Z M15,13.7142857 C14.0058,13.7142857 13.2,12.9468571 13.2,12 C13.2,11.0537143 14.0058,10.2857143 15,10.2857143 C15.9942,10.2857143 16.8,11.0537143 16.8,12 C16.8,12.9468571 15.9942,13.7142857 15,13.7142857 L15,13.7142857 Z M15.6,9.20057143 L15.6,0.571428571 C15.6,0.256 15.3318,0 15,0 C14.6682,0 14.4,0.256 14.4,0.571428571 L14.4,9.20057143 C13.0308,9.46514286 12,10.6177143 12,12 C12,13.3822857 13.0308,14.5348571 14.4,14.7994286 L14.4,15.4285714 C14.4,15.7445714 14.6682,16 15,16 C15.3318,16 15.6,15.7445714 15.6,15.4285714 L15.6,14.7994286 C16.9692,14.5348571 18,13.3822857 18,12 C18,10.6177143 16.9692,9.46514286 15.6,9.20057143 L15.6,9.20057143 Z" id="Fill-127" fill="#569AF9" sketch:type="MSShapeGroup"></path>
    </g>
</svg>