<?xml version="1.0" encoding="UTF-8" standalone="no"?>
<svg width="120px" height="107px" viewBox="0 0 120 107" version="1.1" xmlns="http://www.w3.org/2000/svg" xmlns:xlink="http://www.w3.org/1999/xlink" xmlns:sketch="http://www.bohemiancoding.com/sketch/ns">
    <!-- Generator: Sketch 3.2.2 (9983) - http://www.bohemiancoding.com/sketch -->
    <title>Slice 1</title>
    <desc>Created with Sketch.</desc>
    <defs></defs>
    <g id="Page-1" stroke="none" stroke-width="1" fill="none" fill-rule="evenodd" sketch:type="MSPage">
        <path d="M3.43125,60.4866232 L54.345,82.1497118 C58.84125,84.1591037 60.78375,84.1591037 65.65875,82.1497118 L116.56875,60.4866232 C119.08125,59.3754225 120,54.1602345 120,51.3520563 C116.72625,52.9034771 112.09125,55.1152281 112.00125,55.136529 L60,77.8291648 L7.99875,55.136529 C8.17875,55.2394837 3.3975,53.1910403 0,51.3520563 C0,54.0998817 0.7275,59.1269111 3.43125,60.4866232 L3.43125,60.4866232 L3.43125,60.4866232 Z M60,100.52535 L7.99875,77.8291648 C8.17875,77.9356693 3.3975,75.8872259 0,74.0482419 C0,76.7925174 0.7275,81.8195464 3.43125,83.1792588 L54.345,104.845897 C58.84125,106.855289 60.78375,106.855289 65.65875,104.845897 L116.56875,83.1792588 C119.08125,82.0716082 120,76.8564202 120,74.0482419 C116.72625,75.5961126 112.09125,77.8114138 112.00125,77.8291648 L60,100.52535 L60,100.52535 Z M60,5.95968502 L112.00125,32.4367932 L60,53.18394 L7.99875,32.4367932 L60,5.95968502 L60,5.95968502 Z M3.43125,37.7868874 L54.345,59.4570762 C58.84125,61.4629177 60.78375,61.4629177 65.65875,59.4570762 L116.56875,37.7868874 C120.31875,36.1325119 120.4425,29.099641 116.56875,27.0866991 L65.65875,1.63913787 C61.6575,-0.604564522 58.84125,-0.487409175 54.345,1.63913787 L3.43125,27.0866991 C-0.4425,29.451107 -0.56625,35.7810459 3.43125,37.7868874 L3.43125,37.7868874 L3.43125,37.7868874 Z M60,5.95968502 C60.375,6.37505397 60.2775,6.04843907 60,5.95968502 L60,5.95968502 L60,5.95968502 Z" id="Fill-201" fill="#569AF9" sketch:type="MSShapeGroup"></path>
    </g>
</svg>