<?xml version="1.0" encoding="UTF-8" standalone="no"?>
<svg width="18px" height="16px" viewBox="0 0 18 16" version="1.1" xmlns="http://www.w3.org/2000/svg" xmlns:xlink="http://www.w3.org/1999/xlink" xmlns:sketch="http://www.bohemiancoding.com/sketch/ns">
    <!-- Generator: Sketch 3.2.2 (9983) - http://www.bohemiancoding.com/sketch -->
    <title>Slice 1</title>
    <desc>Created with Sketch.</desc>
    <defs></defs>
    <g id="Page-1" stroke="none" stroke-width="1" fill="none" fill-rule="evenodd" sketch:type="MSPage">
        <path d="M0.5146875,9.09975747 L8.15175,12.3588062 C8.8261875,12.6611041 9.1175625,12.6611041 9.8488125,12.3588062 L17.4853125,9.09975747 C17.8621875,8.93258568 18,8.14799988 18,7.7255306 C17.5089375,7.95893019 16.8136875,8.29167148 16.8001875,8.29487605 L9,11.7088124 L1.1998125,8.29487605 C1.2268125,8.31036481 0.509625,8.0021919 0,7.7255306 C0,8.13892026 0.109125,8.89519902 0.5146875,9.09975747 L0.5146875,9.09975747 Z M9,15.1232828 L1.1998125,11.7088124 C1.2268125,11.7248352 0.509625,11.4166623 0,11.140001 C0,11.5528566 0.109125,12.3091353 0.5146875,12.5136938 L8.15175,15.7732766 C8.8261875,16.0755745 9.1175625,16.0755745 9.8488125,15.7732766 L17.4853125,12.5136938 C17.8621875,12.3470561 18,11.5624703 18,11.140001 C17.5089375,11.3728665 16.8136875,11.7061419 16.8001875,11.7088124 L9,15.1232828 L9,15.1232828 Z M9,0.896589782 L16.8001875,4.87987155 L9,8.00112371 L1.1998125,4.87987155 L9,0.896589782 L9,0.896589782 Z M0.5146875,5.68475297 L8.15175,8.94486987 C8.8261875,9.24663364 9.1175625,9.24663364 9.8488125,8.94486987 L17.4853125,5.68475297 C18.0478125,5.43586462 18.066375,4.37782209 17.4853125,4.07499013 L9.8488125,0.246595962 C9.248625,-0.0909521847 8.8261875,-0.0733270441 8.15175,0.246595962 L0.5146875,4.07499013 C-0.066375,4.43069751 -0.0849375,5.3829892 0.5146875,5.68475297 L0.5146875,5.68475297 Z M9,0.896589782 C9.05625,0.959078916 9.041625,0.909942161 9,0.896589782 L9,0.896589782 Z" id="Fill-201" fill="#FFFFFF" sketch:type="MSShapeGroup"></path>
    </g>
</svg>