<?xml version="1.0" encoding="UTF-8" standalone="no"?>
<svg width="102px" height="32px" viewBox="0 0 102 32" version="1.1" xmlns="http://www.w3.org/2000/svg" xmlns:xlink="http://www.w3.org/1999/xlink" xmlns:sketch="http://www.bohemiancoding.com/sketch/ns">
    <defs></defs>
    <g id="Page-1" stroke="none" stroke-width="1" fill="none" fill-rule="evenodd" sketch:type="MSPage">
        <g id="Slide---Square" sketch:type="MSLayerGroup" fill="#FFFFFF">
            <path d="M11.5720456,25.9684554 C12.2469833,26.6810647 13.1703293,27.1621304 14.1592292,27.228164 L18.2654158,27.5024353 C20.1578093,27.6289211 23.2543611,27.6302334 25.1467546,27.5054637 L29.4002028,27.2251356 C31.2925963,27.1003659 32.9434077,25.4571609 33.0687627,23.5736025 L33.3504057,19.3400126 C33.4163286,18.3487192 33.4471602,17.0255142 33.4431034,15.7196719 L37.7687627,15.7196719 C37.7726166,17.9661325 37.7181542,20.2268265 37.6047667,21.9314069 L37.3948276,25.0872934 C37.1737323,28.4112555 34.2604462,31.3109401 30.9208925,31.5311041 L27.7501014,31.7400631 C24.4105477,31.9601262 18.9460446,31.9578044 15.6066937,31.7347129 L12.6382353,31.5363533 C9.59350913,31.3330473 6.9,28.9023596 6.27616633,25.955836 L6.28680429,25.955836 C6.07235811,24.751126 6.10618661,23.8730095 6.10618661,23.8730095 L6.10618661,23.8730095 L9.14168357,23.8730095 C10.2982759,23.8730095 10.555071,24.8958991 11.5724138,25.9684543 L11.5720456,25.9684554 Z M31.9033465,5.92222082 L31.9022312,5.92222082 C31.2363083,5.25748896 30.3484787,4.81282019 29.4003043,4.74952681 L25.2939148,4.47525552 C23.4015213,4.34876972 20.3049696,4.34745741 18.4125761,4.47222713 L14.1593306,4.75255521 C12.2669371,4.87722397 10.6173428,6.52052997 10.493712,8.40418927 L10.2060852,12.7841514 C10.1450304,13.7149779 10.1151116,14.9385489 10.1160243,16.1654511 L10.1160243,16.1654511 L5.79016227,16.1654511 C5.78935091,14.0169085 5.84198783,11.8779558 5.94908722,10.2477729 L6.16957404,6.89070032 C6.38793103,3.56653628 9.29878296,0.666750789 12.6383367,0.446586751 L15.8089249,0.23762776 C19.1484787,0.0175646688 24.6129817,0.0199873817 27.9523327,0.242977918 L30.9209939,0.441337539 C33.9276059,0.642180133 36.5898171,3.01498428 37.2541937,5.9117224 C37.2545688,5.9128721 37.2547763,5.91402149 37.2549836,5.91517058 C37.2555211,5.91752031 37.2560574,5.9198704 37.2565923,5.92222082 C37.4745429,7.13647917 37.4392495,8.00716719 37.4392495,8.00716719 L34.4037525,8.00716719 C33.2509345,8.00716719 32.9129548,6.9909426 31.9033455,5.92222082 L31.9033465,5.92222082 L31.9033465,5.92222082 Z" id="Shape" sketch:type="MSShapeGroup"></path>
            <g id="Round_Sharp" transform="translate(0.000000, 9.690852)" sketch:type="MSShapeGroup">
                <path d="M43.5578093,4.24418927 L41.6362069,4.24418927 L21.5985801,4.24418927 C20.5375254,4.24418927 19.6770791,3.38776025 19.6770791,2.33135647 L19.6770791,2.01266877 C19.6770791,0.956466877 20.5375254,0.100037855 21.5985801,0.100037855 L41.6362069,0.100037855 C42.6974645,0.100037855 43.5578093,0.956466877 43.5578093,2.01266877 L43.5578093,4.24418927 L43.5578093,4.24418927 Z" id="Shape"></path>
                <path d="M0.0690669371,12.4079243 L1.99066937,12.4079243 L22.0283976,12.4079243 C23.0894523,12.4079243 23.9498986,11.5514953 23.9498986,10.4950915 L23.9498986,10.1765047 C23.9498986,9.12030284 23.0894523,8.26387382 22.0283976,8.26387382 L1.99066937,8.26387382 C0.929411765,8.26387382 0.0690669371,9.12030284 0.0690669371,10.1765047 L0.0690669371,12.4079243 L0.0690669371,12.4079243 Z" id="Shape"></path>
            </g>
            <g id="LIDE" transform="translate(46.146045, 3.230284)" sketch:type="MSShapeGroup">
                <g id="LIDE_1_">
                    <g id="I_1_" transform="translate(6.896552, 3.230284)">
                        <path d="M4.18154158,6.14632177 L4.18154158,8.84764669 L4.18154158,18.5724164 C4.18154158,20.0641009 2.96612576,21.2737413 1.46713996,21.2737413 L0.0197768763,21.2737413 L0.0197768763,8.84764669 C0.0197768763,7.35596215 1.23498986,6.14632177 2.73377282,6.14632177 L4.18154158,6.14632177 L4.18154158,6.14632177 Z" id="Shape"></path>
                        <path d="M4.18154158,2.12845426 C4.18154158,3.2722776 3.24969574,4.19957098 2.10060852,4.19957098 L0.0196754564,4.19957098 L0.0196754564,2.12845426 C0.0196754564,0.984529968 0.951318458,0.0573375394 2.10060852,0.0573375394 L4.18154158,0.0573375394 L4.18154158,2.12845426 L4.18154158,2.12845426 Z" id="Shape"></path>
                    </g>
                    <g id="D_1_" transform="translate(13.793103, 0.000000)">
                        <path d="M15.2673428,2.71374132 C15.2673428,1.22195584 14.0523327,0.0125173502 12.5529412,0.0125173502 L11.1055781,0.0125173502 L11.1055781,2.71374132 L11.1055781,10.1955836 L11.1055781,16.7625489 L11.1009128,16.7625489 C11.1039554,16.8215016 11.1055781,16.880858 11.1055781,16.9406183 C11.1055781,18.8302334 9.5668357,20.3621956 7.66795132,20.3621956 C5.76926978,20.3621956 4.23022312,18.8302334 4.23022312,16.9406183 C4.23022312,15.0507003 5.7693712,13.5188391 7.66795132,13.5188391 L7.66795132,13.5181325 C8.74432049,13.5108644 9.61551724,12.5870032 9.61551724,11.4477224 L9.61551724,9.37660568 L7.65527383,9.37660568 C7.64908722,9.37660568 7.64310345,9.3775142 7.63691684,9.37761514 C3.45446247,9.39437224 0.0687626775,12.7734511 0.0687626775,16.9405174 C0.0687626775,21.1173754 3.47109533,24.5038233 7.66795132,24.5038233 C11.8648073,24.5038233 15.2672414,21.1173754 15.2672414,16.9405174 C15.2672414,16.7799117 15.2612576,16.6207192 15.2514199,16.4627382 C15.2616633,16.3627003 15.2672414,16.2629653 15.2672414,16.163735 L15.2672414,2.71374132 L15.2673428,2.71374132 Z" id="Shape"></path>
                    </g>
                    <g id="E_1_" transform="translate(32.150101, 9.287066)">
                        <path d="M18.8730223,11.248959 L16.6770791,11.248959 L14.3170385,11.248959 L7.63042596,11.248959 C5.73154158,11.248959 4.19269777,9.71679495 4.19269777,7.82728076 C4.19269777,5.93776656 5.731643,4.40560252 7.63042596,4.40560252 C9.52910751,4.40560252 11.0680527,5.93766562 11.0680527,7.82728076 L11.0682556,7.82728076 L11.8617647,7.82728076 L13.0280933,7.82728076 C14.1108519,7.82728076 14.9883367,6.90018927 14.9883367,5.75616404 C14.86643,5.28656151 14.6996957,4.83502839 14.4939148,4.40560252 L14.4941176,4.40560252 C14.4761663,4.36815142 14.456998,4.33140694 14.4384381,4.29425868 C14.4175456,4.25246688 14.3973631,4.21017035 14.3756592,4.16888328 C14.3334686,4.08812618 14.2897566,4.0082776 14.2447262,3.92923659 C14.2372211,3.91601262 14.2291075,3.90309148 14.221501,3.88986751 C14.1831643,3.82354574 14.1443205,3.75762776 14.1040568,3.69251735 C14.1025355,3.69009464 14.101217,3.68757098 14.0996957,3.68514826 L14.0993915,3.68514826 C12.7610548,1.52782334 10.3649087,0.0897413249 7.63052738,0.0897413249 C3.43387424,0.0897413249 0.0311359026,3.47598738 0.0311359026,7.6534511 C0.0311359026,11.6227634 3.10476673,14.8759621 7.01176471,15.1896025 C7.14361055,15.2071672 7.27839757,15.2167571 7.41551724,15.2167571 L18.8730223,15.2167571 L21.6776876,15.2167571 L21.6776876,13.8366183 C21.6776876,12.4074196 20.4220081,11.248959 18.8730223,11.248959 L18.8730223,11.248959 Z" id="Shape"></path>
                    </g>
                    <g id="L_2_">
                        <path d="M4.23793103,21.6404795 L4.23793103,21.3976025 L4.23793103,2.75401893 L4.23793103,0.0527949527 L2.79036511,0.0527949527 C1.29158215,0.0527949527 0.0763691684,1.2619306 0.0763691684,2.75401893 L0.0764705882,19.3263849 L0.0762677485,19.3263849 C0.0762677485,19.3263849 0.0763691684,21.8610473 0.0763691684,22.4330095 C0.0763691684,23.5769338 1.00801217,24.5040252 2.15720081,24.5040252 L4.23813387,24.5040252 C4.23813387,24.5040252 4.23793103,22.5434448 4.23793103,21.6404795 L4.23793103,21.6404795 Z" id="Shape"></path>
                    </g>
                </g>
            </g>
        </g>
    </g>
</svg>