<?xml version="1.0" encoding="UTF-8" standalone="no"?>
<svg width="16px" height="16px" viewBox="0 0 16 16" version="1.1" xmlns="http://www.w3.org/2000/svg" xmlns:xlink="http://www.w3.org/1999/xlink" xmlns:sketch="http://www.bohemiancoding.com/sketch/ns">
    <!-- Generator: Sketch 3.2.2 (9983) - http://www.bohemiancoding.com/sketch -->
    <title>Fill 176</title>
    <desc>Created with Sketch.</desc>
    <defs></defs>
    <g id="Page-1" stroke="none" stroke-width="1" fill="none" fill-rule="evenodd" sketch:type="MSPage">
        <path d="M15.5,9 L12.5,9 C12.2235,9 12,9.224 12,9.5 C12,9.7765 12.2235,10 12.5,10 L15.5,10 C15.7765,10 16,9.7765 16,9.5 C16,9.224 15.7765,9 15.5,9 L15.5,9 Z M15.5,6 L11.5,6 C11.2235,6 11,6.2235 11,6.5 C11,6.7765 11.2235,7 11.5,7 L15.5,7 C15.7765,7 16,6.7765 16,6.5 C16,6.2235 15.7765,6 15.5,6 L15.5,6 Z M15.5,12 L12.5,12 C12.2235,12 12,12.224 12,12.5 C12,12.7765 12.2235,13 12.5,13 L15.5,13 C15.7765,13 16,12.7765 16,12.5 C16,12.224 15.7765,12 15.5,12 L15.5,12 Z M11.5,4 L15.5,4 C15.7765,4 16,3.7765 16,3.5 C16,3.224 15.7765,3 15.5,3 L11.5,3 C11.2235,3 11,3.224 11,3.5 C11,3.7765 11.2235,4 11.5,4 L11.5,4 Z M10,12.75 C10,13.9925 8.901,15 7.5455,15 L3.4545,15 C2.099,15 1,13.9925 1,12.75 L1,11.25 C1,10.187 1.8065,9.302 2.8875,9.0665 C3.625,9.652 4.525,10 5.5,10 C6.475,10 7.375,9.652 8.1125,9.0665 C9.1935,9.302 10,10.187 10,11.25 L10,12.75 L10,12.75 Z M2,5 C2,2.791 3.567,1 5.5,1 C7.433,1 9,2.791 9,5 C9,7.209 7.433,9 5.5,9 C3.567,9 2,7.209 2,5 L2,5 Z M8.9755,8.1765 C9.615,7.3125 10,6.206 10,5 C10,2.239 7.9855,0 5.5,0 C3.0145,0 1,2.239 1,5 C1,6.206 1.385,7.3125 2.0245,8.1765 C0.8495,8.5825 0,9.6865 0,11 L0,13 C0,14.6565 1.3435,16 3,16 L8,16 C9.6565,16 11,14.6565 11,13 L11,11 C11,9.6865 10.1505,8.5825 8.9755,8.1765 L8.9755,8.1765 Z" id="Fill-176" fill="#FFFFFF" sketch:type="MSShapeGroup"></path>
    </g>
</svg>