<?xml version="1.0" encoding="UTF-8" standalone="no"?>
<svg width="120px" height="112px" viewBox="0 0 120 112" version="1.1" xmlns="http://www.w3.org/2000/svg" xmlns:xlink="http://www.w3.org/1999/xlink" xmlns:sketch="http://www.bohemiancoding.com/sketch/ns">
    <!-- Generator: Sketch 3.2.2 (9983) - http://www.bohemiancoding.com/sketch -->
    <title>users-big</title>
    <desc>Created with Sketch.</desc>
    <defs></defs>
    <g id="Page-1" stroke="none" stroke-width="1" fill="none" fill-rule="evenodd" sketch:type="MSPage">
        <g id="users-big" sketch:type="MSLayerGroup" fill="#569AF9">
            <g id="Page-1" sketch:type="MSShapeGroup">
                <path d="M116.25,63 L93.75,63 C91.67625,63 90,64.568 90,66.5 C90,68.4355 91.67625,70 93.75,70 L116.25,70 C118.32375,70 120,68.4355 120,66.5 C120,64.568 118.32375,63 116.25,63 L116.25,63 L116.25,63 Z M116.25,42 L86.25,42 C84.17625,42 82.5,43.5645 82.5,45.5 C82.5,47.4355 84.17625,49 86.25,49 L116.25,49 C118.32375,49 120,47.4355 120,45.5 C120,43.5645 118.32375,42 116.25,42 L116.25,42 L116.25,42 Z M116.25,84 L93.75,84 C91.67625,84 90,85.568 90,87.5 C90,89.4355 91.67625,91 93.75,91 L116.25,91 C118.32375,91 120,89.4355 120,87.5 C120,85.568 118.32375,84 116.25,84 L116.25,84 L116.25,84 Z M86.25,28 L116.25,28 C118.32375,28 120,26.4355 120,24.5 C120,22.568 118.32375,21 116.25,21 L86.25,21 C84.17625,21 82.5,22.568 82.5,24.5 C82.5,26.4355 84.17625,28 86.25,28 L86.25,28 L86.25,28 Z M75,89.25 C75,97.9475 66.7575,105 56.59125,105 L25.90875,105 C15.7425,105 7.5,97.9475 7.5,89.25 L7.5,78.75 C7.5,71.309 13.54875,65.114 21.65625,63.4655 C27.1875,67.564 33.9375,70 41.25,70 C48.5625,70 55.3125,67.564 60.84375,63.4655 C68.95125,65.114 75,71.309 75,78.75 L75,89.25 L75,89.25 Z M15,35 C15,19.537 26.7525,7 41.25,7 C55.7475,7 67.5,19.537 67.5,35 C67.5,50.463 55.7475,63 41.25,63 C26.7525,63 15,50.463 15,35 L15,35 L15,35 Z M67.31625,57.2355 C72.1125,51.1875 75,43.442 75,35 C75,15.673 59.89125,0 41.25,0 C22.60875,0 7.5,15.673 7.5,35 C7.5,43.442 10.3875,51.1875 15.18375,57.2355 C6.37125,60.0775 0,67.8055 0,77 L0,91 C0,102.5955 10.07625,112 22.5,112 L60,112 C72.42375,112 82.5,102.5955 82.5,91 L82.5,77 C82.5,67.8055 76.12875,60.0775 67.31625,57.2355 L67.31625,57.2355 L67.31625,57.2355 Z" id="Fill-176"></path>
            </g>
        </g>
    </g>
</svg>